<svg xmlns="http://www.w3.org/2000/svg" width="1800" height="1000" viewBox="0 0 1800 1000" role="img" aria-labelledby="title desc">
  <title id="title">Research Architect mental model</title>
  <desc id="desc">A black and white overview diagram showing Research Architect inputs, workflow stages, outputs, why it matters, and safety boundaries.</desc>
  <defs>
    <style>
      .bg { fill: #fbfaf7; }
      .ink { fill: none; stroke: #111; stroke-width: 4; stroke-linecap: round; stroke-linejoin: round; }
      .thin { fill: none; stroke: #111; stroke-width: 3; stroke-linecap: round; stroke-linejoin: round; }
      .dash { fill: none; stroke: #111; stroke-width: 3.5; stroke-linecap: round; stroke-linejoin: round; stroke-dasharray: 12 12; }
      .box { fill: #fffefb; stroke: #111; stroke-width: 4; stroke-linecap: round; stroke-linejoin: round; }
      .smallbox { fill: #fffefb; stroke: #111; stroke-width: 3.5; stroke-linecap: round; stroke-linejoin: round; }
      .title { font: 42px "Comic Sans MS", "Bradley Hand", "Segoe Print", cursive; fill: #111; }
      .h2 { font: 27px "Comic Sans MS", "Bradley Hand", "Segoe Print", cursive; fill: #111; }
      .label { font: 18px "Comic Sans MS", "Bradley Hand", "Segoe Print", cursive; fill: #111; }
      .small { font: 14px "Comic Sans MS", "Bradley Hand", "Segoe Print", cursive; fill: #111; }
      .tiny { font: 15px "Comic Sans MS", "Bradley Hand", "Segoe Print", cursive; fill: #111; }
      .num { font: 16px "Comic Sans MS", "Bradley Hand", "Segoe Print", cursive; fill: #111; }
    </style>
  </defs>

  <rect class="bg" x="0" y="0" width="1800" height="1000"/>

  <text class="title" x="508" y="62">Research Architect - Mental Model</text>
  <path class="ink" d="M498 82 C705 75, 1022 78, 1324 80"/>

  <text class="h2" x="118" y="166">Starting point</text>
  <path class="thin" d="M112 176 C178 172, 241 174, 296 173"/>

  <rect class="box" x="52" y="210" width="272" height="98" rx="12"/>
  <text class="label" x="151" y="269">Raw topic</text>
  <path class="thin" d="M88 260 q18 -30 36 0 q-7 11 -7 23 h-22 q0 -12 -7 -23"/>
  <path class="thin" d="M96 286 h19 M97 296 h17 M105 228 v15 M72 260 h14 M125 260 h15 M82 237 l11 11 M127 237 l-11 11"/>

  <rect class="box" x="52" y="342" width="272" height="98" rx="12"/>
  <text class="label" x="151" y="402">Partial materials</text>
  <path class="thin" d="M77 384 h68 v38 h-68 z M81 374 h28 l8 10 M77 384 l15 -20 h45 l8 20"/>

  <rect class="box" x="52" y="474" width="272" height="98" rx="12"/>
  <text class="label" x="151" y="534">Scattered results</text>
  <circle cx="88" cy="513" r="4" fill="#111"/><circle cx="116" cy="505" r="4" fill="#111"/><circle cx="135" cy="532" r="4" fill="#111"/>
  <circle cx="103" cy="545" r="4" fill="#111"/><circle cx="78" cy="536" r="4" fill="#111"/><circle cx="126" cy="555" r="4" fill="#111"/>

  <rect class="box" x="52" y="606" width="272" height="98" rx="12"/>
  <text class="label" x="151" y="656">Source papers /</text>
  <text class="label" x="151" y="687">notes</text>
  <path class="thin" d="M77 630 h40 l15 15 v45 h-55 z M117 630 v15 h15 M87 662 h32 M87 674 h32"/>

  <path class="ink" d="M336 390 H390 C405 390, 408 426, 420 426 H474"/>
  <path class="ink" d="M336 522 H390 C405 522, 408 426, 420 426"/>
  <path class="ink" d="M336 654 H390 C405 654, 408 426, 420 426"/>
  <path class="ink" d="M336 258 H390 C405 258, 408 426, 420 426"/>
  <path class="ink" d="M474 426 l-22 -14 M474 426 l-22 14"/>

  <rect class="box" x="490" y="250" width="645" height="472" rx="18"/>
  <text class="h2" x="625" y="292">Research Architect skill suite</text>

  <rect class="smallbox" x="512" y="320" width="184" height="176" rx="10"/>
  <circle class="thin" cx="548" cy="348" r="15"/><text class="num" x="542" y="356">1</text>
  <text class="small" x="580" y="348">Frame</text><text class="small" x="580" y="377">the problem</text>
  <circle class="thin" cx="604" cy="431" r="28"/><path class="thin" d="M604 382 v22 M604 458 v27 M553 431 h24 M631 431 h31"/><circle cx="604" cy="431" r="5" fill="#111"/>

  <rect class="smallbox" x="720" y="320" width="190" height="176" rx="10"/>
  <circle class="thin" cx="756" cy="348" r="15"/><text class="num" x="750" y="356">2</text>
  <text class="small" x="788" y="348">Map literature</text><text class="small" x="788" y="377">&amp; exemplars</text>
  <circle class="thin" cx="784" cy="432" r="27"/><path class="thin" d="M804 452 l34 34"/>
  <path class="thin" d="M838 407 q30 -22 62 0 v58 q-32 -21 -62 0 z M838 407 q-30 -22 -62 0 v14"/>

  <rect class="smallbox" x="930" y="320" width="184" height="176" rx="10"/>
  <circle class="thin" cx="966" cy="348" r="15"/><text class="num" x="960" y="356">3</text>
  <text class="small" x="998" y="348">Confirm the</text><text class="small" x="998" y="377">research spine</text>
  <path class="thin" d="M1013 423 C1030 410, 1048 430, 1033 448 C1018 466, 1042 481, 1063 466"/>
  <circle cx="1013" cy="423" r="6" fill="#fff" stroke="#111" stroke-width="3"/><circle cx="1033" cy="448" r="6" fill="#fff" stroke="#111" stroke-width="3"/><circle cx="1063" cy="466" r="6" fill="#fff" stroke="#111" stroke-width="3"/>

  <rect class="smallbox" x="512" y="520" width="184" height="176" rx="10"/>
  <circle class="thin" cx="548" cy="548" r="15"/><text class="num" x="542" y="556">4</text>
  <text class="small" x="580" y="548">Design</text><text class="small" x="580" y="577">the study</text>
  <path class="thin" d="M580 610 h24 v24 h-24 z M548 660 h24 v24 h-24 z M632 660 h24 v24 h-24 z M592 634 v16 h-32 v10 M592 634 v16 h52 v10"/>
  <circle class="thin" cx="644" cy="620" r="16"/><path class="thin" d="M644 598 v-12 M644 654 v-12 M622 620 h-12 M678 620 h-12"/>

  <rect class="smallbox" x="720" y="520" width="190" height="176" rx="10"/>
  <circle class="thin" cx="756" cy="548" r="15"/><text class="num" x="750" y="556">5</text>
  <text class="small" x="788" y="548">Control claims</text><text class="small" x="788" y="577">with evidence</text>
  <path class="thin" d="M802 612 l45 -18 l45 18 v38 q-8 38 -45 58 q-37 -20 -45 -58 z"/>
  <path class="thin" d="M830 648 l15 15 l35 -42"/>

  <rect class="smallbox" x="930" y="520" width="184" height="176" rx="10"/>
  <circle class="thin" cx="966" cy="548" r="15"/><text class="num" x="960" y="556">6</text>
  <text class="small" x="998" y="548">Draft with</text><text class="small" x="998" y="577">citation support</text>
  <path class="thin" d="M991 606 h54 l18 18 v63 h-72 z M1045 606 v18 h18 M1004 641 h44 M1004 655 h44 M1004 669 h30"/>
  <text class="h2" x="1032" y="700">"</text>

  <rect class="dash" x="715" y="110" width="310" height="88" rx="28"/>
  <text class="small" x="802" y="145">Can run end-to-end</text>
  <text class="small" x="825" y="174">or by branch skill</text>
  <circle class="thin" cx="755" cy="154" r="20"/><path class="thin" d="M755 120 v14 M755 174 v14 M721 154 h14 M775 154 h14 M732 131 l10 10 M778 131 l-10 10 M732 177 l10 -10 M778 177 l-10 -10"/>
  <path class="thin" d="M870 198 v40 M870 238 l-10 -16 M870 238 l10 -16"/>
  <path class="thin" d="M870 250 v-40"/>

  <path class="ink" d="M1148 486 H1230"/>
  <path class="ink" d="M1230 486 l-20 -13 M1230 486 l-20 13"/>

  <text class="h2" x="1388" y="160">What it produces</text>
  <path class="thin" d="M1378 171 C1455 166, 1536 168, 1638 169"/>

  <rect class="smallbox" x="1248" y="190" width="240" height="86" rx="9"/>
  <text class="small" x="1320" y="241">Research spine</text>
  <path class="thin" d="M1282 212 C1302 225, 1265 238, 1286 252 C1304 264, 1273 271, 1288 279"/><circle cx="1282" cy="212" r="4" fill="#fff" stroke="#111" stroke-width="3"/><circle cx="1286" cy="252" r="4" fill="#fff" stroke="#111" stroke-width="3"/>

  <rect class="smallbox" x="1504" y="190" width="240" height="86" rx="9"/>
  <text class="small" x="1580" y="241">Source inventory</text>
  <ellipse class="thin" cx="1537" cy="219" rx="22" ry="9"/><path class="thin" d="M1515 219 v34 q22 18 44 0 v-34 M1515 236 q22 16 44 0"/>

  <rect class="smallbox" x="1248" y="292" width="240" height="86" rx="9"/>
  <text class="small" x="1320" y="343">Literature map</text>
  <circle class="thin" cx="1283" cy="335" r="10"/><circle class="thin" cx="1258" cy="317" r="8"/><circle class="thin" cx="1309" cy="314" r="8"/><circle class="thin" cx="1262" cy="360" r="8"/><circle class="thin" cx="1313" cy="362" r="8"/><path class="thin" d="M1275 329 l-12 -8 M1290 328 l14 -10 M1276 342 l-10 14 M1291 343 l15 14"/>

  <rect class="smallbox" x="1504" y="292" width="240" height="86" rx="9"/>
  <text class="small" x="1648" y="343">Study design</text>
  <path class="thin" d="M1542 309 h28 v22 h-28 z M1517 349 h22 v22 h-22 z M1568 349 h22 v22 h-22 z M1618 349 h22 v22 h-22 z M1556 331 v10 h73 v8 M1556 341 h-28 v8 M1556 341 h24 v8"/>

  <rect class="smallbox" x="1248" y="394" width="240" height="86" rx="9"/>
  <text class="small" x="1320" y="445">Evidence bank</text>
  <path class="thin" d="M1265 415 h55 v18 l-9 36 h-37 l-9 -36 z M1265 433 h55 M1280 449 h25"/>

  <rect class="smallbox" x="1504" y="394" width="240" height="86" rx="9"/>
  <text class="small" x="1580" y="445">Claim register</text>
  <path class="thin" d="M1526 411 h45 v62 h-45 z M1536 426 l6 6 l12 -14 M1538 443 h22 M1538 457 h22"/>

  <rect class="smallbox" x="1248" y="496" width="240" height="86" rx="9"/>
  <text class="small" x="1360" y="536">Citation support</text><text class="small" x="1410" y="560">bank</text>
  <text class="h2" x="1265" y="545">"</text><path class="thin" d="M1295 518 h45 M1295 535 h70 M1295 552 h58"/>

  <rect class="smallbox" x="1504" y="496" width="240" height="86" rx="9"/>
  <text class="small" x="1580" y="544">Section blueprint</text>
  <path class="thin" d="M1525 512 h52 v56 h-52 z M1536 526 h28 M1536 540 h20 M1536 554 h29"/>

  <rect class="smallbox" x="1248" y="598" width="240" height="86" rx="9"/>
  <text class="small" x="1340" y="646">Writing rationale matrix</text>
  <path class="thin" d="M1266 615 h55 v50 h-55 z M1266 631 h55 M1266 648 h55 M1284 615 v50 M1303 615 v50"/>

  <rect class="smallbox" x="1504" y="598" width="240" height="86" rx="9"/>
  <text class="small" x="1648" y="646">First draft</text>
  <path class="thin" d="M1526 614 h44 l14 14 v47 h-58 z M1570 614 v14 h14 M1595 650 l34 -34 l14 14 l-34 34 l-19 5 z"/>

  <rect class="smallbox" x="1248" y="700" width="496" height="70" rx="9"/>
  <text class="small" x="1430" y="745">Audit report</text>
  <path class="thin" d="M1358 717 l22 -10 l22 10 v22 q-5 23 -22 34 q-17 -11 -22 -34 z M1372 737 l8 8 l18 -23"/>

  <rect class="box" x="76" y="792" width="814" height="176" rx="14"/>
  <text class="h2" x="394" y="830">Why it matters</text>
  <path class="thin" d="M388 840 C463 836, 530 838, 608 837"/>
  <path class="thin" d="M122 922 h13 v-35 h-13 z M150 922 h13 v-58 h-13 z M178 922 h13 v-82 h-13 z M112 858 C142 839, 163 822, 198 805"/>
  <path class="thin" d="M198 805 l-9 28 M198 805 l-27 -4"/>
  <text class="small" x="210" y="873">Transparent</text><text class="small" x="210" y="905">workflow</text>
  <path class="thin" d="M356 832 v112 M606 832 v112"/>
  <path class="thin" d="M404 849 l38 -16 l38 16 v38 q-6 39 -38 58 q-32 -19 -38 -58 z M423 884 l14 14 l31 -42"/>
  <text class="small" x="492" y="873">Auditable</text><text class="small" x="492" y="905">research trail</text>
  <path class="thin" d="M672 899 l60 -63 l34 34 l-60 63 l-30 8 z M732 836 l25 -22 l25 25 l-24 22 M689 883 l34 34"/>
  <text class="small" x="770" y="862">From idea</text><text class="small" x="770" y="892">to credible</text><text class="small" x="770" y="922">first draft</text>

  <rect class="dash" x="970" y="790" width="748" height="178" rx="18"/>
  <path class="thin" d="M1202 807 h25 v29 h-25 z M1208 807 v-17 q0 -17 13 -17 q13 0 13 17 v17"/>
  <text class="h2" x="1240" y="830">Safety boundary</text>
  <path class="thin" d="M1237 840 C1340 835, 1454 838, 1578 837"/>
  <circle cx="1032" cy="872" r="5" fill="#111"/><text class="small" x="1058" y="879">Learn from external papers for structure and expectations</text>
  <circle cx="1032" cy="913" r="5" fill="#111"/><text class="small" x="1058" y="920">Do not copy text, figures, data, or claims</text>
  <circle cx="1032" cy="952" r="5" fill="#111"/><text class="small" x="1058" y="959">User-provided evidence stays authoritative</text>
</svg>
